<svg xmlns="http://www.w3.org/2000/svg" width="40" height="50.001" viewBox="0 0 40 50.001"><defs><style>.a{fill:#fff;}</style></defs><path class="a" d="M300.4,258H267.6a3.53,3.53,0,0,0-3.6,3.46v43.08a3.53,3.53,0,0,0,3.6,3.46h32.8a3.53,3.53,0,0,0,3.6-3.46V261.46A3.53,3.53,0,0,0,300.4,258ZM277,302.74a1,1,0,0,1-1.07,1H269.7a1,1,0,0,1-1.06-1v-4.65a1,1,0,0,1,1.06-1H276a1,1,0,0,1,1.07,1Zm0-9.44a1,1,0,0,1-1.07,1H269.7a1,1,0,0,1-1.06-1v-4.64a1,1,0,0,1,1.06-1H276a1,1,0,0,1,1.07,1Zm0-9.44a1,1,0,0,1-1.07,1H269.7a1,1,0,0,1-1.06-1v-4.64a1,1,0,0,1,1.06-1H276a1,1,0,0,1,1.07,1Zm11.17,18.88a1,1,0,0,1-1.07,1h-6.25a1,1,0,0,1-1.06-1v-4.65a1,1,0,0,1,1.06-1h6.25a1,1,0,0,1,1.07,1Zm0-9.44a1,1,0,0,1-1.07,1h-6.25a1,1,0,0,1-1.06-1v-4.64a1,1,0,0,1,1.06-1h6.25a1,1,0,0,1,1.07,1Zm0-9.44a1,1,0,0,1-1.07,1h-6.25a1,1,0,0,1-1.06-1v-4.64a1,1,0,0,1,1.06-1h6.25a1,1,0,0,1,1.07,1Zm11.23,18.88a1,1,0,0,1-1.06,1h-6.25a1,1,0,0,1-1.07-1v-4.65a1,1,0,0,1,1.07-1h6.25a1,1,0,0,1,1.06,1Zm0-9.44a1,1,0,0,1-1.06,1h-6.25a1,1,0,0,1-1.07-1v-4.64a1,1,0,0,1,1.07-1h6.25a1,1,0,0,1,1.06,1Zm0-9.44a1,1,0,0,1-1.06,1h-6.25a1,1,0,0,1-1.07-1v-4.64a1,1,0,0,1,1.07-1h6.25a1,1,0,0,1,1.06,1Zm.06-13.16a1.39,1.39,0,0,1-1.42,1.36h-28a1.39,1.39,0,0,1-1.42-1.36v-7.05a1.39,1.39,0,0,1,1.42-1.36h28a1.39,1.39,0,0,1,1.42,1.36Z" transform="translate(-264 -257.999)"/></svg>