<svg xmlns="http://www.w3.org/2000/svg" width="80.045" height="50.017" viewBox="0 0 80.045 50.017"><defs><style>.a{fill:#fff;}</style></defs><g transform="translate(0.016 -0.002)"><path class="a" d="M319,310H247a4.05,4.05,0,0,1-3-1.34,3.85,3.85,0,0,1-1-2.95l4.15-39.13a3.93,3.93,0,0,1,4-3.48l63.33.9a4,4,0,0,1,3.91,3.44L323,305.63a3.81,3.81,0,0,1-.93,3A4.06,4.06,0,0,1,319,310Zm-67.85-45a2.06,2.06,0,0,0-2.08,1.77l-4.14,39.13a1.86,1.86,0,0,0,.47,1.45,2.16,2.16,0,0,0,1.6.7h72a2.12,2.12,0,0,0,1.6-.71,1.82,1.82,0,0,0,.47-1.47l-4.53-38.22a2,2,0,0,0-2-1.74L251.18,265Z" transform="translate(-243 -260)"/><path class="a" d="M319.32,304.57l-5.42-43.86c-16.92-3.2-30.77,5.48-30.77,5.48s-13.84-8.68-30.76-5.48l-5.93,44.94a.67.67,0,0,0,.74.8c4.57-.56,24.94-2.83,31.29.54a.83.83,0,0,1,.25.18,3.45,3.45,0,0,1,1,1.84c.17,1.15,3.43,1,3.43,1s3.27.17,3.44-1a3.45,3.45,0,0,1,1-1.84.879.879,0,0,1,.25-.18c6-3.17,24.05-1.42,30-.75a1.42,1.42,0,0,0,1.48-1.67Zm-40.76-6.89a27.3,27.3,0,0,0-3.08-1.61A38,38,0,0,0,264,293.15c-1-.11-2.06-.2-3.1-.25a37.474,37.474,0,0,0-4.37,0c-1.23.09-1.22-1.84,0-1.92a43.11,43.11,0,0,1,7.95.3,36.85,36.85,0,0,1,15,4.74C280.58,296.66,279.62,298.33,278.56,297.68Zm0-7.63a25.76,25.76,0,0,0-3.08-1.61A37.721,37.721,0,0,0,264,285.52c-1-.11-2.06-.2-3.1-.26a35.394,35.394,0,0,0-4.37,0c-1.23.09-1.22-1.84,0-1.93a44,44,0,0,1,7.95.3,37.149,37.149,0,0,1,15,4.74C280.58,289,279.62,290.69,278.56,290.05Zm0-7.64a29,29,0,0,0-3.08-1.61A38,38,0,0,0,264,277.88c-1-.11-2.06-.2-3.1-.25a35.388,35.388,0,0,0-4.37,0c-1.23.08-1.22-1.85,0-1.93a43.11,43.11,0,0,1,7.95.3,36.85,36.85,0,0,1,15,4.74c1.1.65.14,2.32-.92,1.67Zm0-7.63a27.292,27.292,0,0,0-3.08-1.61A38,38,0,0,0,264,270.25c-1-.11-2.06-.2-3.1-.26a37.474,37.474,0,0,0-4.37,0c-1.23.09-1.22-1.84,0-1.92a43.11,43.11,0,0,1,7.95.3,36.851,36.851,0,0,1,15,4.74,1,1,0,0,1-.92,1.67Zm29.28,18.12a37.481,37.481,0,0,0-4.37,0c-1,.05-2.08.14-3.1.25a38.16,38.16,0,0,0-11.45,2.92,29.123,29.123,0,0,0-3.08,1.61c-1,.65-2-1-1-1.66a36.8,36.8,0,0,1,15-4.74,43.11,43.11,0,0,1,7.95-.3c1.27.08,1.28,2.02.05,1.92Zm0-7.63a35.4,35.4,0,0,0-4.37,0c-1,.06-2.08.15-3.1.26a37.86,37.86,0,0,0-11.45,2.92,27.369,27.369,0,0,0-3.08,1.61c-1,.64-2-1-1-1.67a37.1,37.1,0,0,1,15-4.74,44,44,0,0,1,7.95-.3c1.27.08,1.28,2,.05,1.92Zm0-7.63a35.4,35.4,0,0,0-4.37,0c-1,.05-2.08.14-3.1.25a38.16,38.16,0,0,0-11.45,2.92,31.117,31.117,0,0,0-3.08,1.61c-1,.65-2-1-1-1.66a36.8,36.8,0,0,1,15-4.74,43.11,43.11,0,0,1,7.95-.3c1.27.07,1.28,2,.05,1.92Zm0-7.64a37.481,37.481,0,0,0-4.37,0c-1,.06-2.08.15-3.1.26a38.159,38.159,0,0,0-11.45,2.92,29.12,29.12,0,0,0-3.08,1.61c-1,.64-2-1-1-1.66a36.8,36.8,0,0,1,15-4.74,43.11,43.11,0,0,1,7.95-.3c1.27.07,1.28,2,.05,1.91Z" transform="translate(-243 -260)"/></g></svg>