<svg xmlns="http://www.w3.org/2000/svg" width="50.001" height="50" viewBox="0 0 50.001 50"><defs><style>.a{fill:#fff;}</style></defs><path class="a" d="M304,277.46h-1.79a2,2,0,0,1-1.46-1.32c-.1-.27-.22-.55-.33-.82a2,2,0,0,1,.09-2l1.27-1.26a4.06,4.06,0,0,0,0-5.72l-2.12-2.11a4,4,0,0,0-5.71,0l-1.27,1.26a1.43,1.43,0,0,1-1,.3,2.53,2.53,0,0,1-1-.2c-.27-.12-.55-.24-.82-.34a2,2,0,0,1-1.32-1.46V262a4,4,0,0,0-4-4h-3a4,4,0,0,0-4,4v1.79a2,2,0,0,1-1.32,1.46c-.27.1-.55.22-.81.34a2.541,2.541,0,0,1-1,.2,1.43,1.43,0,0,1-1-.3l-1.27-1.26a4,4,0,0,0-5.71,0l-2.12,2.11a4.06,4.06,0,0,0,0,5.72l1.27,1.26a2,2,0,0,1,.1,2c-.12.26-.24.54-.34.81a2,2,0,0,1-1.46,1.32H262a4,4,0,0,0-4,4v3a4,4,0,0,0,4,4h1.79a2,2,0,0,1,1.46,1.32c.1.27.22.55.33.81a2,2,0,0,1-.09,2l-1.27,1.26a4.06,4.06,0,0,0,0,5.72l2.12,2.12a4,4,0,0,0,5.71,0l1.27-1.27a1.42,1.42,0,0,1,1-.3,2.37,2.37,0,0,1,1,.21c.27.11.54.23.82.33a2,2,0,0,1,1.32,1.46V304a4,4,0,0,0,4,4h3a4,4,0,0,0,4-4v-1.79a2,2,0,0,1,1.32-1.46c.27-.1.55-.21.81-.33a2.55,2.55,0,0,1,1-.21,1.49,1.49,0,0,1,1,.3l1.26,1.27a4,4,0,0,0,2.86,1.18h.35c1.48-.13,2.78-1.44,3.48-2.14l.09-.09,1.06-1.06a4,4,0,0,0,0-5.71l-1.27-1.27a2,2,0,0,1-.09-2c.12-.26.23-.54.33-.81a2,2,0,0,1,1.46-1.32H304a4,4,0,0,0,4-4v-3a4,4,0,0,0-4-4.1ZM294,283a10.965,10.965,0,1,0-.07,0Z" transform="translate(-258 -258)"/></svg>