<svg xmlns="http://www.w3.org/2000/svg" width="40.07" height="50.06" viewBox="0 0 40.07 50.06"><defs><style>.a{fill:#fff;}</style></defs><path class="a" d="M303,303.5l-4.44-6.5V263.73a5,5,0,0,0-4.94-5H267.94a5,5,0,0,0-4.94,5v40.06a5,5,0,0,0,4.94,5h29.9a.67.67,0,0,0,.67-.67v-5.5L302.6,304h.1a.31.31,0,0,0,.3-.5Zm-33.73-35.12h23.12v2H269.22Zm23.12,6.81v2.09H283.2v-2.09Zm-23.12,0h11.3v2.09h-11.3Zm0,7h23.12v2H269.22Zm19,8h-19V288.1h19Zm10.64,11.15-1.65-.55v6.66h-4.74v-6.66l-1.65.55-1.38.46,5.42-8.09,5.45,8.12Z" transform="translate(-263 -258.73)"/></svg>