<svg xmlns="http://www.w3.org/2000/svg" width="40.04" height="50.012" viewBox="0 0 40.04 50.012"><defs><style>.a{fill:#fff;}</style></defs><g transform="translate(0.05 0.004)"><path class="a" d="M291.31,258H276.73a.74.74,0,0,0-.8.65v5.79a.73.73,0,0,0,.8.64h14.58a.73.73,0,0,0,.81-.64v-5.79a.74.74,0,0,0-.81-.65Z" transform="translate(-264 -258)"/><path class="a" d="M299.48,261.87H294v4a.94.94,0,0,1-1,.88H275a.94.94,0,0,1-1-.88v-4h-5.53a4.28,4.28,0,0,0-4.52,4V304a4.27,4.27,0,0,0,4.52,4h31a4.27,4.27,0,0,0,4.52-4V265.86A4.28,4.28,0,0,0,299.48,261.87Zm-.69,38.63H268.68a.89.89,0,1,1,0-1.78h30.11a.89.89,0,1,1,0,1.78Zm0-9.76H268.68a.89.89,0,1,1,0-1.78h30.11a.89.89,0,1,1,0,1.78Zm0-9.76H268.68a.89.89,0,1,1,0-1.78h30.11a.9.9,0,1,1,0,1.8Zm0-9.76H268.68a.89.89,0,1,1,0-1.78h30.11a.89.89,0,0,1,0,1.78Z" transform="translate(-264 -258)"/></g></svg>